<?xml version="1.0" encoding="UTF-8" standalone="no"?><!DOCTYPE svg PUBLIC "-//W3C//DTD SVG 1.1//EN" "http://www.w3.org/Graphics/SVG/1.1/DTD/svg11.dtd"><svg width="100%" height="100%" viewBox="0 0 781 73" version="1.1" xmlns="http://www.w3.org/2000/svg" xmlns:xlink="http://www.w3.org/1999/xlink" xml:space="preserve" xmlns:serif="http://www.serif.com/" style="fill-rule:evenodd;clip-rule:evenodd;stroke-linejoin:round;stroke-miterlimit:2;"><g transform="matrix(100,0,0,100,56,75.4)"><path d="M0.09,-0.496c0,0.003 -0.002,0.012 -0.006,0.024c-0.005,0.013 -0.007,0.022 -0.007,0.026c0,0.008 -0.001,0.012 -0.002,0.013c-0.003,0.002 -0.005,0.013 -0.005,0.034c0,0.028 0.003,0.061 0.009,0.099c0.005,0.038 0.011,0.062 0.017,0.072c0.003,0.003 0.004,0.007 0.004,0.011c0,0.005 0.006,0.017 0.018,0.034c0.012,0.018 0.02,0.028 0.025,0.03l0.011,0.007c0.003,0.003 0.005,0.005 0.007,0.007c0.011,0.01 0.02,0.016 0.027,0.018c0.008,0.003 0.018,0.004 0.032,0.005l0.009,-0c0.019,-0 0.042,-0.006 0.068,-0.018c0.025,-0.012 0.046,-0.03 0.062,-0.053c0.006,-0.008 0.013,-0.02 0.02,-0.036c0.008,-0.015 0.012,-0.025 0.012,-0.028c-0,-0.003 0.003,-0.013 0.01,-0.031c0.007,-0.017 0.011,-0.027 0.011,-0.029c0.001,-0.005 0.003,-0.011 0.005,-0.018c0.012,-0.03 0.018,-0.069 0.018,-0.117c-0,-0.033 -0.003,-0.061 -0.009,-0.084c-0.007,-0.026 -0.015,-0.045 -0.022,-0.058c-0.007,-0.013 -0.017,-0.026 -0.03,-0.039c-0.013,-0.013 -0.026,-0.023 -0.037,-0.032c-0.01,-0.007 -0.023,-0.01 -0.039,-0.011l-0.013,0c-0.037,0 -0.063,0.003 -0.08,0.01c-0.01,0.003 -0.024,0.015 -0.041,0.034c-0.017,0.02 -0.031,0.039 -0.041,0.058c-0.022,0.037 -0.033,0.061 -0.033,0.072Zm0.339,-0.123c0.009,0.013 0.014,0.021 0.014,0.024c-0,0.003 0.003,0.012 0.009,0.027c0.007,0.015 0.01,0.026 0.01,0.034l-0,0.013c-0,0.014 0.001,0.028 0.004,0.043c0.003,0.015 0.005,0.029 0.005,0.042l-0,0.012c-0.001,0.036 -0.003,0.056 -0.006,0.059c-0.001,0.003 -0.003,0.011 -0.004,0.023c-0.001,0.007 -0.003,0.015 -0.007,0.025c-0.004,0.01 -0.006,0.018 -0.006,0.024c0.001,0.007 0.001,0.012 -0.002,0.013c-0.007,0.004 -0.012,0.017 -0.016,0.04c-0.004,0.021 -0.009,0.032 -0.016,0.032c-0.004,-0 -0.006,0.001 -0.006,0.004c-0,0.001 0.001,0.002 0.002,0.001c0.003,-0.001 0.004,0 0.004,0.003c-0,0.004 -0.002,0.01 -0.007,0.018c-0.005,0.009 -0.008,0.014 -0.011,0.015c-0.003,0.001 -0.005,0.003 -0.005,0.006c-0,0.003 -0.004,0.008 -0.011,0.017c-0.008,0.011 -0.012,0.018 -0.013,0.021c-0.001,0.003 -0.007,0.007 -0.016,0.012c-0.009,0.005 -0.015,0.007 -0.02,0.007c-0.004,-0 -0.012,0.003 -0.023,0.01c-0.013,0.007 -0.03,0.012 -0.051,0.013c-0.006,0.001 -0.013,0.001 -0.021,0.001c-0.009,-0 -0.022,-0.002 -0.04,-0.007c-0.019,-0.005 -0.033,-0.011 -0.044,-0.017c-0.011,-0.006 -0.022,-0.016 -0.035,-0.029c-0.035,-0.036 -0.056,-0.074 -0.065,-0.115l-0.01,-0.042c-0.008,-0.033 -0.012,-0.071 -0.012,-0.113c-0,-0.017 0.001,-0.034 0.004,-0.051c0.008,-0.037 0.017,-0.068 0.028,-0.091c0.011,-0.023 0.029,-0.055 0.056,-0.095c0.011,-0.019 0.026,-0.035 0.045,-0.049c0.009,-0.007 0.03,-0.015 0.062,-0.022c0.01,-0.002 0.021,-0.003 0.032,-0.003c0.04,-0 0.079,0.014 0.117,0.042c0.015,0.012 0.024,0.018 0.027,0.018c0.002,-0 0.003,0.002 0.003,0.006c-0,0.005 0.002,0.008 0.006,0.009c0.003,0.001 0.01,0.007 0.019,0.02Zm-0.144,0.034c-0.006,-0.005 -0.016,-0.007 -0.029,-0.007c-0.005,-0 -0.008,0.001 -0.009,0.002c-0.001,0.001 -0.006,0.005 -0.015,0.01c-0.013,0.007 -0.025,0.017 -0.038,0.031c-0.013,0.014 -0.019,0.025 -0.019,0.032c-0,0.004 -0.002,0.008 -0.006,0.012c-0.003,0.003 -0.006,0.013 -0.009,0.031c-0.003,0.018 -0.005,0.032 -0.005,0.041l-0,0.049c-0,0.027 0.001,0.043 0.003,0.049c0.001,0.005 0.001,0.01 -0.001,0.014c-0.002,0.005 -0.002,0.009 0.001,0.012c0.003,0.005 0.005,0.017 0.005,0.034l-0,0.012c-0,0.003 0,0.006 0.001,0.008c0.001,0.002 0.001,0.003 0.001,0.003c0.001,0.001 0.002,0.001 0.003,0.001c0.003,-0 0.008,0.007 0.016,0.022c0.007,0.015 0.016,0.024 0.027,0.029c0.01,0.005 0.018,0.007 0.023,0.007c0.006,-0 0.013,-0.003 0.02,-0.008c0.018,-0.013 0.036,-0.034 0.053,-0.063c0.017,-0.028 0.028,-0.054 0.032,-0.077c0.001,-0.005 0.003,-0.015 0.006,-0.028c0.004,-0.013 0.007,-0.026 0.008,-0.037c0.001,-0.013 0.002,-0.023 0.002,-0.029c-0,-0.023 -0.004,-0.047 -0.012,-0.071c-0.005,-0.016 -0.012,-0.032 -0.022,-0.047c-0.01,-0.015 -0.018,-0.024 -0.024,-0.026c-0.003,-0.001 -0.007,-0.003 -0.012,-0.006Zm0.103,0.238c0,0.005 -0.002,0.01 -0.006,0.015c-0.003,0.006 -0.005,0.011 -0.006,0.014c0,0.003 -0.002,0.01 -0.007,0.021c-0.005,0.012 -0.009,0.021 -0.01,0.026c-0.003,0.009 -0.005,0.014 -0.007,0.016c-0.002,0.002 -0.003,0.005 -0.003,0.009c0,0.009 -0.011,0.023 -0.033,0.044c-0.01,0.009 -0.015,0.015 -0.015,0.018c0,0.003 -0.005,0.009 -0.016,0.017c-0.007,0.007 -0.013,0.011 -0.016,0.012c-0.004,0.001 -0.01,0.002 -0.019,0.002c-0.026,-0 -0.049,-0.008 -0.07,-0.024c-0.007,-0.005 -0.017,-0.017 -0.028,-0.036c-0.027,-0.045 -0.04,-0.111 -0.04,-0.199l0,-0.02c0.001,-0.041 0.007,-0.074 0.019,-0.101c0.007,-0.017 0.019,-0.035 0.036,-0.053c0.017,-0.017 0.031,-0.028 0.043,-0.031c0.003,-0.001 0.009,-0.003 0.016,-0.008c0.007,-0.004 0.013,-0.006 0.02,-0.006c0.005,-0 0.018,0.003 0.038,0.009c0.02,0.006 0.033,0.011 0.039,0.015c0.013,0.008 0.028,0.03 0.043,0.067c0.007,0.018 0.013,0.029 0.016,0.034c0.004,0.007 0.006,0.014 0.006,0.021c0,0.007 0.001,0.012 0.003,0.015c0.004,0.008 0.006,0.027 0.006,0.058c0,0.021 -0.001,0.035 -0.004,0.041c-0.003,0.009 -0.005,0.017 -0.005,0.024Z" style="fill:#d22e7a;fill-rule:nonzero;"/></g><g transform="matrix(100,0,0,100,105.8,75.4)"><path d="M0.378,-0.455c-0,0.002 0.004,0.012 0.012,0.029c0.008,0.017 0.012,0.026 0.012,0.028c-0,0.003 0.003,0.011 0.009,0.023c0.005,0.012 0.009,0.019 0.012,0.022c0.004,0.003 0.007,0.009 0.008,0.018c-0,0.002 0,0.004 0.001,0.006c0.001,0.002 0.002,0.003 0.002,0.004c0.001,0.001 0.001,0.002 0.002,0.001c0.001,-0.001 0.001,-0.012 0.001,-0.034c-0,-0.072 -0.002,-0.178 -0.006,-0.317l0.001,-0.02l-0,-0.013l0.023,-0c0.008,0 0.019,-0.001 0.032,-0.004c0.013,-0.002 0.023,-0.003 0.03,-0.003c0.009,-0 0.018,0.001 0.026,0.004c0.007,0.002 0.011,0.004 0.013,0.006c0.002,0.003 0.005,0.009 0.009,0.02c0.007,0.022 0.011,0.043 0.011,0.062c-0,0.011 -0.002,0.018 -0.007,0.02c-0.005,0.001 -0.008,0.004 -0.009,0.009c-0.001,0.005 0.002,0.01 0.007,0.014c0.005,0.003 0.007,0.008 0.008,0.013c0.001,0.005 0.002,0.02 0.003,0.043c0.001,0.018 0.001,0.036 0.001,0.053c-0,0.011 -0.003,0.019 -0.009,0.025c-0.004,0.005 -0.005,0.008 -0.002,0.01c0.001,0.001 0.003,0 0.005,-0.001c0.001,-0.001 0.002,-0.001 0.002,0.002c-0,0.003 -0,0.007 -0.001,0.012c-0.001,0.011 -0.003,0.017 -0.006,0.018c-0.003,0.001 -0.004,0.003 -0.003,0.006c0.001,0.003 0.002,0.006 0.005,0.007c0.005,0.003 0.007,0.017 0.007,0.044c-0,0.026 -0.002,0.044 -0.007,0.053c-0.002,0.003 -0.003,0.006 -0.004,0.007c-0.001,0.002 -0.001,0.003 -0,0.004c0.001,0.001 0.002,0.002 0.004,0.003c0.002,0.001 0.003,0.003 0.004,0.006c0.001,0.003 0.002,0.005 0.001,0.007c0,0.003 -0.001,0.004 -0.003,0.004c-0.001,0.001 -0.002,0.002 -0.002,0.005c-0,0.003 0.001,0.007 0.002,0.011c0.001,0.005 0.003,0.008 0.004,0.01c0.002,0.003 0.002,0.006 -0,0.009c-0.001,0.001 -0.003,0.006 -0.004,0.014c-0.001,0.009 -0.002,0.018 -0.003,0.027c-0.001,0.009 -0.001,0.015 -0.002,0.017c-0.002,0.007 -0.001,0.011 0.003,0.014c0.003,0.002 0.005,0.008 0.006,0.017c0.001,0.006 0,0.01 -0.001,0.011c-0.001,0.002 -0.005,0.005 -0.012,0.008c-0.009,0.004 -0.016,0.004 -0.02,0.001c-0.009,-0.007 -0.013,-0.016 -0.013,-0.027c-0,-0.003 0,-0.006 0.001,-0.008c0.001,-0.005 0.002,-0.02 0.002,-0.045l-0,-0.025c-0,-0.009 -0,-0.018 -0.001,-0.029c0,-0.011 -0,-0.019 -0.001,-0.025c0,-0.005 -0,-0.008 -0,-0.009c0.003,-0.057 0.004,-0.135 0.004,-0.236c-0,-0.041 -0,-0.064 -0.001,-0.071c-0.001,-0.02 -0.002,-0.035 -0.002,-0.046l-0,-0.012l0.001,-0.022l-0.021,0.001c-0.011,0.001 -0.019,0.002 -0.023,0.004c-0.004,0.002 -0.006,0.006 -0.006,0.012c-0,0.005 -0.001,0.009 -0.003,0.01c-0.001,0.001 -0.002,0.007 -0.002,0.02c-0,0.022 0.001,0.039 0.004,0.051c0.001,0.003 0.001,0.007 -0.002,0.011c-0.003,0.003 -0.003,0.011 -0,0.023c0.002,0.01 0.003,0.023 0.003,0.04l-0,0.019c-0,0.119 0.002,0.181 0.005,0.188c0.001,0.003 0.002,0.01 0.002,0.021l-0,0.026c-0,0.007 -0.001,0.012 -0.003,0.014c-0.003,0.003 -0.004,0.006 -0.004,0.009c-0,0.007 -0.006,0.01 -0.017,0.01c-0.007,-0 -0.013,-0.002 -0.019,-0.006c-0.004,-0.003 -0.01,-0.012 -0.018,-0.028c-0.008,-0.016 -0.012,-0.026 -0.012,-0.031c-0,-0.003 -0.001,-0.004 -0.002,-0.004c-0.002,-0 -0.003,-0.001 -0.002,-0.003c0.001,-0.002 0,-0.003 -0.001,-0.003c-0.001,-0 -0.002,-0.001 -0.002,-0.004c-0,-0.002 -0.001,-0.003 -0.002,-0.003c-0.001,-0 -0.002,-0.001 -0.002,-0.003c-0,-0.004 -0.005,-0.015 -0.015,-0.034c-0.009,-0.019 -0.015,-0.028 -0.017,-0.028c-0.002,-0 -0.003,-0.001 -0.002,-0.004c0.001,-0.002 0,-0.003 -0.001,-0.003c-0.002,-0 -0.003,-0.001 -0.002,-0.004c0.001,-0.002 0,-0.003 -0.002,-0.003c-0.001,-0 -0.002,-0.001 -0.001,-0.004c0.001,-0.002 -0,-0.003 -0.002,-0.003c-0.002,-0 -0.003,-0.001 -0.002,-0.003c0.001,-0.002 0,-0.003 -0.001,-0.003c-0.002,-0 -0.003,-0.001 -0.003,-0.004c0.001,-0.002 0.001,-0.003 0,-0.003c-0.002,-0 -0.003,-0.002 -0.003,-0.007c-0.001,-0.005 -0.005,-0.017 -0.014,-0.034c-0.009,-0.017 -0.015,-0.026 -0.018,-0.029c-0.002,-0.001 -0.003,-0.003 -0.003,-0.006c-0.001,-0.002 -0.002,-0.003 -0.003,-0.003c-0.002,-0 -0.003,-0.001 -0.002,-0.004c-0,-0.002 -0.001,-0.003 -0.002,-0.003c-0.002,-0 -0.003,-0.001 -0.002,-0.003c0.001,-0.002 0,-0.003 -0.002,-0.003c-0.002,-0 -0.002,-0.001 -0.001,-0.004c0.001,-0.001 0,-0.006 -0.003,-0.013c-0.004,-0.007 -0.007,-0.011 -0.009,-0.011c-0.001,-0 -0.002,-0.004 -0.003,-0.012c0,-0.009 -0.001,-0.014 -0.004,-0.017c-0.001,-0.001 -0.006,-0.014 -0.015,-0.041c-0.015,-0.044 -0.03,-0.068 -0.046,-0.073c-0.009,-0.003 -0.015,-0.005 -0.016,-0.007c-0.002,-0.002 -0.004,-0.002 -0.007,-0c-0.003,0.003 -0.013,0.002 -0.03,-0.003c-0.015,-0.003 -0.023,-0.005 -0.026,-0.005c-0.004,-0 -0.01,0.001 -0.018,0.003c-0.015,0.004 -0.028,0.006 -0.038,0.006c-0.011,-0 -0.019,-0.002 -0.023,-0.006l-0.007,-0.007l0.002,0.017c0.005,0.048 0.009,0.113 0.011,0.196c0.002,0.079 0.005,0.135 0.008,0.168c0.006,0.06 0.009,0.105 0.009,0.136l0,0.015l-0.001,0.015c0,0.009 0.002,0.014 0.007,0.014c0.001,-0 0.006,-0.001 0.014,-0.004l0.014,-0.005l-0.001,-0.027c-0.001,-0.069 -0.004,-0.139 -0.008,-0.211c-0.002,-0.024 -0.003,-0.059 -0.003,-0.106l0,-0.024l0.002,-0.075l0.01,0.001c0.003,-0 0.013,-0.001 0.028,-0.003c0.015,-0.001 0.026,-0.002 0.034,-0.002c0.023,-0 0.035,0.005 0.035,0.016c0,0.005 0.004,0.008 0.011,0.01c0.007,0.003 0.014,0.006 0.019,0.011c0.005,0.005 0.008,0.01 0.008,0.014c0,0.005 0.001,0.009 0.003,0.013l0.007,0.014c0.002,0.004 0.003,0.008 0.003,0.013c0,0.009 0.005,0.02 0.015,0.035c0.002,0.006 0.004,0.01 0.005,0.012c0.009,0.019 0.014,0.037 0.014,0.055c0,0.009 0.002,0.016 0.007,0.022c0.005,0.006 0.007,0.011 0.007,0.014c0,0.002 0.002,0.006 0.006,0.012c0.004,0.006 0.006,0.01 0.006,0.013c0,0.002 -0,0.003 -0.001,0.004c-0.001,0.003 -0.002,0.004 -0.002,0.005c0,0.006 0.006,0.022 0.019,0.047c0.008,0.016 0.013,0.029 0.016,0.038c0.003,0.009 0.005,0.014 0.008,0.015c0.002,0.001 0.003,0.003 0.003,0.008c-0,0.011 0.012,0.029 0.036,0.054c0.014,0.014 0.03,0.021 0.049,0.021c0.007,-0 0.014,-0.001 0.022,-0.003c0.005,-0.001 0.01,-0.002 0.015,-0.002c0.003,-0 0.006,0.001 0.011,0.002c0.005,0.002 0.009,0.003 0.012,0.004c0.007,-0 0.01,0.001 0.01,0.004c0,0.008 0.003,0.012 0.01,0.012c0.003,-0 0.007,0.002 0.013,0.007c0.004,0.004 0.005,0.01 0.002,0.017c-0.002,0.005 -0.004,0.008 -0.007,0.009c-0.003,0.001 -0.008,0.002 -0.017,0.002c-0.009,-0 -0.015,-0.001 -0.018,-0.002c-0.003,-0.001 -0.006,-0.005 -0.011,-0.01l-0.009,-0.012l-0.028,0.002c-0.019,0.001 -0.031,0.004 -0.038,0.007c-0.006,0.003 -0.012,0.004 -0.017,0.004c-0.017,-0 -0.028,-0.013 -0.033,-0.038c-0.001,-0.003 -0.006,-0.011 -0.016,-0.024c-0.008,-0.009 -0.021,-0.031 -0.038,-0.066c-0.018,-0.035 -0.027,-0.056 -0.027,-0.063c0,-0.003 -0.003,-0.013 -0.008,-0.03c-0.022,-0.066 -0.033,-0.101 -0.033,-0.106c0,-0.006 -0.002,-0.012 -0.005,-0.017c-0.01,-0.022 -0.015,-0.039 -0.015,-0.052c0,-0.005 -0.003,-0.012 -0.009,-0.023c-0.006,-0.01 -0.012,-0.017 -0.017,-0.022c-0.005,-0.005 -0.012,-0.008 -0.019,-0.008c-0.005,-0 -0.01,0 -0.014,0.001l-0.023,0.002l0,0.06c0,0.029 0.002,0.067 0.006,0.112c0.003,0.046 0.005,0.081 0.006,0.104c0.001,0.023 0.002,0.044 0.005,0.063c0.002,0.019 0.003,0.039 0.003,0.06c0,0.02 -0,0.032 -0.001,0.036c-0.001,0.004 -0.003,0.007 -0.007,0.01c-0.006,0.004 -0.015,0.004 -0.027,0.001c-0.005,-0.001 -0.012,-0.002 -0.019,-0.002l-0.02,0.001c-0.007,-0 -0.016,-0.002 -0.025,-0.005c-0.013,-0.004 -0.021,-0.008 -0.025,-0.011c-0.005,-0.003 -0.007,-0.008 -0.007,-0.014c0,-0.002 0.001,-0.007 0.002,-0.015c0.001,-0.012 0.002,-0.027 0.002,-0.044c0,-0.045 -0.002,-0.08 -0.006,-0.106c-0.003,-0.025 -0.006,-0.099 -0.008,-0.223c-0.002,-0.075 -0.003,-0.119 -0.004,-0.132c-0.001,-0.032 -0.002,-0.05 -0.002,-0.054c0,-0.003 0.005,-0.005 0.015,-0.007c0.01,-0.001 0.021,-0.002 0.032,-0.003c0.011,-0.001 0.018,-0.001 0.019,-0.002c0.01,-0.004 0.024,-0.006 0.041,-0.006c0.029,-0 0.05,0.004 0.061,0.012c0.004,0.003 0.009,0.004 0.014,0.002c0.005,-0.001 0.01,-0.001 0.015,0.001c0.005,0.003 0.011,0.004 0.017,0.004c0.018,-0 0.034,0.015 0.049,0.044c0.009,0.017 0.014,0.028 0.014,0.032c0,0.003 0.002,0.006 0.005,0.007c0.003,0.001 0.005,0.005 0.005,0.01c0,0.007 0.002,0.011 0.005,0.013c0.003,0.002 0.004,0.005 0.005,0.01c-0,0.005 0.001,0.009 0.003,0.012c0.005,0.007 0.009,0.016 0.011,0.028c0.003,0.015 0.006,0.025 0.009,0.03c0.004,0.007 0.006,0.012 0.006,0.017c0.001,0.008 0.003,0.012 0.006,0.012c0.003,-0 0.006,0.003 0.01,0.008c0.005,0.005 0.007,0.01 0.007,0.013Z" style="fill:#d22e7a;fill-rule:nonzero;"/></g><g transform="matrix(100,0,0,100,166.2,75.4)"><path d="M0.304,-0.607c0,-0.001 0.005,-0.003 0.016,-0.004c0.011,-0.001 0.022,-0.001 0.033,-0.003c0.012,-0.001 0.018,-0.001 0.019,-0.001c0.039,0 0.073,-0.002 0.103,-0.007l0.016,-0.002l-0.003,-0.026c-0.001,-0.017 -0.001,-0.025 0.001,-0.026c0.002,-0.001 0.007,-0 0.014,0.003c0.007,0.003 0.011,0.006 0.013,0.009c0.002,0.003 0.004,0.016 0.005,0.038l0.002,0.031l-0.009,0.006c-0.006,0.004 -0.025,0.006 -0.058,0.007c-0.065,0.001 -0.098,0.004 -0.1,0.008c-0.003,0.005 -0.003,0.012 0,0.021c0.005,0.009 0.007,0.048 0.007,0.117l0,0.009l-0.001,0.138c-0,0.004 0,0.01 0.001,0.017c-0,0.008 0,0.013 0,0.014c0,0.006 -0.001,0.011 -0.003,0.015c-0.001,0.003 -0.002,0.01 -0.002,0.023c-0,0.007 -0.001,0.013 -0.002,0.018c-0.001,0.005 -0.002,0.008 -0.002,0.011c-0,0.003 0,0.006 0.001,0.009c0.002,0.003 0.002,0.005 0,0.008c-0.002,0.003 -0.003,0.004 -0.003,0.004c0.001,0.001 -0.001,0.002 -0.004,0.003c-0.004,0.002 -0.006,0.003 -0.007,0.004c0.008,0.003 0.012,0.006 0.012,0.007c-0.003,0.002 -0.004,0.005 -0.001,0.009c0.003,0.005 0.003,0.012 0,0.019c-0.002,0.006 -0.002,0.013 0,0.02c0.002,0.006 0,0.011 -0.006,0.015c-0.009,0.005 -0.017,0.005 -0.023,-0.001c-0.006,-0.006 -0.02,-0.009 -0.042,-0.009c-0.011,-0 -0.018,0.001 -0.022,0.002c-0.009,0.003 -0.017,0.001 -0.024,-0.005c-0.015,-0.012 -0.022,-0.034 -0.022,-0.065l0,-0.089c0,-0.037 0.002,-0.065 0.005,-0.084c0.003,-0.017 0.004,-0.038 0.004,-0.065c0,-0.005 -0,-0.013 -0,-0.025c-0.001,-0.012 -0.001,-0.022 -0.001,-0.031c-0.001,-0.053 -0.003,-0.089 -0.006,-0.106l-0.004,-0.021l-0.016,0.002c-0.069,0.006 -0.105,0.01 -0.108,0.011c-0.008,0.003 -0.015,0.004 -0.022,0.004c-0.01,-0 -0.019,-0.025 -0.026,-0.074c-0.004,-0.031 -0.006,-0.047 -0.007,-0.049c-0.001,-0.003 -0.001,-0.005 0.002,-0.008c0.009,-0.007 0.108,-0.011 0.297,-0.011c0.091,0 0.137,-0.001 0.138,-0.002c0.002,-0.002 0.004,-0.003 0.007,-0.003c0.005,0 0.011,0.003 0.016,0.008c0.005,0.006 0.007,0.012 0.007,0.017c-0,0.006 -0.003,0.01 -0.01,0.012c-0.019,0.005 -0.048,0.008 -0.089,0.008l-0.009,-0c-0.012,-0.001 -0.045,-0.002 -0.099,-0.002c-0.123,0 -0.196,0.002 -0.219,0.005c-0.005,0.001 -0.007,0.001 -0.008,0.002c-0.001,0.001 -0.001,0.004 -0,0.007c0.007,0.018 0.01,0.031 0.01,0.038c-0,0.003 0.001,0.006 0.003,0.008l0.006,-0c0.031,-0 0.061,-0.003 0.09,-0.008c0.005,-0.001 0.013,-0.002 0.023,-0.002c0.007,-0 0.013,0 0.016,0.001l0.017,0.003l0.001,0.017c0.001,0.011 0.003,0.017 0.008,0.019c0.009,0.003 0.013,0.013 0.013,0.028c-0,0.007 0.001,0.013 0.003,0.016c0.002,0.003 0.004,0.022 0.005,0.057c0.001,0.035 0.002,0.052 0.002,0.053c-0,0.011 -0.001,0.02 -0.004,0.027c-0.002,0.004 -0.002,0.008 -0,0.012c0.002,0.004 0.003,0.019 0.003,0.045c-0,0.035 -0.001,0.052 -0.004,0.053c-0.003,0.001 -0.005,0.015 -0.005,0.04c-0,0.01 -0,0.021 -0.001,0.034c0,0.013 -0,0.022 -0,0.025c-0,0.02 0.001,0.032 0.003,0.037c0.001,0.002 0.001,0.004 0.001,0.007c-0,0.003 -0.001,0.006 -0.002,0.009l-0.002,0.005c-0,0.003 0.011,0.004 0.032,0.005l0.027,0.002l0.001,-0.032c0.007,-0.115 0.01,-0.205 0.01,-0.27l-0.001,-0.128l-0.008,-0.02c-0.005,-0.012 -0.008,-0.02 -0.008,-0.023Z" style="fill:#d22e7a;fill-rule:nonzero;"/></g><g transform="matrix(100,0,0,100,264,75.4)"><path d="M0.294,-0.648c-0.093,-0.002 -0.146,-0.004 -0.161,-0.006l-0.007,0c-0.004,0 -0.009,0.001 -0.016,0.002c-0.007,0.001 -0.012,0.002 -0.017,0.002c-0.005,0 -0.008,0.001 -0.009,0.003c-0.001,0.001 -0.002,0.006 -0.002,0.014c0,0.009 0.002,0.027 0.005,0.053c0.003,0.027 0.005,0.046 0.005,0.058l0,0.007c-0.001,0.013 -0.001,0.034 -0.001,0.065c0,0.02 -0.001,0.03 -0.002,0.03c-0.005,-0 -0.007,0.054 -0.007,0.161l0,0.121c0,0.015 0.001,0.023 0.003,0.025c0.002,0.003 0.02,0.004 0.054,0.004c0.008,-0 0.02,0 0.037,0c0.017,0.001 0.037,0.001 0.06,0.002c0.023,0.001 0.041,0.001 0.056,0.001l0.103,0.002l-0.002,-0.021c-0.001,-0.016 -0.003,-0.025 -0.006,-0.028c-0.002,-0.002 -0.01,-0.004 -0.024,-0.005c-0.015,-0.001 -0.025,0.001 -0.029,0.005c-0.007,0.007 -0.011,0.008 -0.014,0.003c-0.003,-0.005 -0.035,-0.008 -0.094,-0.009c-0.042,-0.001 -0.068,-0.003 -0.079,-0.008c-0.012,-0.005 -0.018,-0.011 -0.018,-0.017c0,-0.003 0.001,-0.006 0.003,-0.011c0.001,-0.003 0.002,-0.007 0.002,-0.014c0,-0.008 -0.001,-0.015 -0.002,-0.022c-0.001,-0.005 -0.002,-0.012 -0.002,-0.019c0,-0.001 0.002,-0.009 0.006,-0.022c0.001,-0.003 0.008,-0.006 0.021,-0.009c0.013,-0.003 0.026,-0.004 0.04,-0.005c0.008,-0 0.019,-0.001 0.034,-0.002c0.011,-0.001 0.018,-0.003 0.021,-0.006c0.003,-0.002 0.005,-0.007 0.005,-0.015c0,-0.005 -0,-0.01 -0.001,-0.013l-0.001,-0.017l-0.044,0.002c-0.008,0.001 -0.018,0.001 -0.029,0.001c-0.017,0 -0.03,-0.005 -0.037,-0.016c-0.005,-0.007 -0.005,-0.012 -0.002,-0.016c0.004,-0.004 0.007,-0.006 0.01,-0.006c0.001,0 0.002,-0 0.003,-0.001c0.001,-0.001 0.001,-0.002 0.001,-0.004c0,-0.002 -0,-0.004 -0.001,-0.007c-0.001,-0.003 -0.003,-0.008 -0.005,-0.014c-0.004,-0.013 -0.007,-0.047 -0.01,-0.103c-0.001,-0.037 -0.002,-0.06 -0.002,-0.068l0.001,-0.019c0.001,-0.001 0.04,-0.003 0.117,-0.004c0.077,-0.001 0.118,-0.004 0.123,-0.009c0.005,-0.003 0.007,-0.007 0.007,-0.011l-0.001,-0.018l-0.001,-0.015l-0.091,-0.001Zm-0.229,-0.043c0.009,0 0.022,-0.001 0.04,-0.002c0.018,-0.002 0.032,-0.003 0.043,-0.003l0.013,0c0.025,0.001 0.067,0.002 0.126,0.002c0.049,0.001 0.08,0.002 0.093,0.004c0.013,0.002 0.023,0.007 0.03,0.015c0.005,0.006 0.006,0.012 0.005,0.018c-0.001,0.008 -0.001,0.014 0.001,0.017c0.006,0.011 0.01,0.03 0.012,0.057c0.001,0.019 0.003,0.03 0.004,0.033c0.001,0.001 0.001,0.002 0.001,0.003c0,0.005 -0.005,0.008 -0.015,0.008c-0.003,0 -0.009,-0.001 -0.017,-0.004c-0.004,-0.002 -0.04,-0.003 -0.108,-0.003c-0.067,0 -0.103,0.001 -0.106,0.003c-0.002,0.001 -0.003,0.007 -0.003,0.019c0,0.015 0,0.028 0.001,0.041c0.001,0.037 0.003,0.057 0.004,0.062c0.001,0.002 0.001,0.003 -0,0.004c-0.001,-0 -0.004,-0 -0.007,-0.001c-0.005,-0.001 -0.008,0 -0.008,0.005c0,0.003 0.001,0.004 0.002,0.005c0.001,0.001 0.003,0 0.006,-0.001l0.002,0c0.004,0 0.008,0.003 0.011,0.009c0.003,0.005 0.005,0.011 0.005,0.016c0,0.006 0.008,0.007 0.024,0.003c0.002,-0.001 0.005,-0.001 0.01,-0.001c0.01,0 0.021,0.002 0.032,0.007c0.011,0.004 0.019,0.009 0.023,0.015c0.005,0.005 0.007,0.015 0.007,0.028c0,0.009 -0.001,0.017 -0.004,0.023c-0.003,0.008 -0.003,0.013 0,0.016c0.004,0.004 0.006,0.01 0.006,0.018c0,0.006 -0.002,0.01 -0.005,0.011c-0.003,0.001 -0.007,0.005 -0.011,0.011l-0.005,0.009l-0.079,0c-0.012,0 -0.02,0 -0.023,0.001c-0.003,0.001 -0.005,0.003 -0.005,0.007c0,0.004 0.001,0.01 0.003,0.019l0.002,0.015l0.048,0.001c0.107,0.003 0.167,0.007 0.182,0.013c0.009,0.003 0.014,0.006 0.016,0.008c0.001,0.001 0.003,0.005 0.004,0.01c0,0.001 0.001,0.004 0.003,0.011c0.001,0.007 0.003,0.013 0.004,0.018c0.003,0.01 0.004,0.022 0.004,0.036c0,0.018 -0.002,0.028 -0.007,0.03c-0.002,0.002 -0.006,0.003 -0.012,0.002c-0.006,-0.001 -0.01,0 -0.012,0.003c-0.003,0.003 -0.018,0.005 -0.046,0.006l-0.025,0.001c-0.011,-0 -0.024,-0.001 -0.041,-0.002c-0.017,-0.001 -0.031,-0.002 -0.042,-0.002l-0.025,0.001l-0.037,0.001c-0.005,-0 -0.01,-0 -0.016,-0.001c-0.006,0 -0.01,-0 -0.011,-0c-0.02,-0.003 -0.031,-0.004 -0.034,-0.004c-0.002,-0 -0.01,0.001 -0.025,0.002c-0.02,0.002 -0.035,0.003 -0.045,0.003c-0.015,-0 -0.024,-0.004 -0.027,-0.011c-0.001,-0.003 -0.002,-0.034 -0.002,-0.093c0,-0.101 0.001,-0.177 0.004,-0.228c0.005,-0.091 0.008,-0.141 0.008,-0.151c0,-0.012 -0.001,-0.03 -0.002,-0.054c-0.003,-0.036 -0.004,-0.057 -0.004,-0.064c0,-0.017 0.01,-0.025 0.03,-0.025Z" style="fill:#d22e7a;fill-rule:nonzero;"/></g><g transform="matrix(100,0,0,100,364.1,75.4)"><path d="M0.129,-0.696c-0.001,-0.002 -0.005,-0.003 -0.013,-0.003c-0.013,-0 -0.022,0.002 -0.025,0.005c-0.002,0.002 -0.005,0.003 -0.01,0.003c-0.005,-0 -0.008,0 -0.011,0.001c-0.002,0.001 -0.003,0.004 -0.003,0.007c0,0.005 0.002,0.02 0.007,0.046l0.008,0.054c0.007,0.021 0.01,0.126 0.01,0.314c0,0.05 -0.001,0.086 -0.002,0.107l-0.002,0.024l0.023,0.002c0.007,0.001 0.015,0.001 0.024,0.001c0.004,-0 0.014,-0.001 0.031,-0.002c0.017,-0.001 0.036,-0.001 0.057,-0.001c0.101,-0.001 0.159,-0.004 0.176,-0.007c0.003,-0.001 0.005,-0.002 0.006,-0.005c0.001,-0.002 0,-0.008 -0.001,-0.019c-0.001,-0.008 -0.001,-0.017 -0.001,-0.028c0,-0.009 -0.03,-0.014 -0.089,-0.014c-0.074,0 -0.115,0.002 -0.123,0.006c-0.005,0.002 -0.012,0.003 -0.022,0.003c-0.01,-0 -0.017,-0.003 -0.021,-0.009c-0.004,-0.006 -0.006,-0.017 -0.006,-0.032c-0,-0.057 -0.004,-0.11 -0.011,-0.16c-0.003,-0.025 -0.004,-0.062 -0.004,-0.111c-0,-0.041 0.001,-0.073 0.003,-0.095c0.001,-0.019 0.002,-0.034 0.002,-0.045c-0,-0.025 -0.001,-0.039 -0.003,-0.042Zm-0.064,-0.034c0.016,-0.005 0.036,-0.008 0.059,-0.008c0.012,0 0.019,0.001 0.022,0.002c0.01,0.004 0.015,0.02 0.015,0.049c-0,0.019 0.002,0.032 0.005,0.037c0.003,0.003 0.004,0.008 0.004,0.015c-0,0.007 -0.001,0.02 -0.003,0.04c-0.002,0.026 -0.003,0.046 -0.003,0.061c-0,0.008 -0.001,0.014 -0.003,0.017c-0.002,0.003 -0.002,0.008 -0,0.013c0.001,0.002 0.003,0.02 0.004,0.053c0.002,0.034 0.003,0.052 0.004,0.054l-0,0.013c-0,0.003 0.001,0.011 0.002,0.024c0.002,0.013 0.003,0.021 0.003,0.026l-0,0.004l-0.001,0.002c-0.001,0.001 -0.001,0.003 -0.001,0.006c-0,0.003 0.001,0.009 0.002,0.018c0.001,0.009 0.002,0.014 0.002,0.017c-0,0.009 0.001,0.014 0.003,0.016c0.001,0.001 0.003,0.005 0.004,0.01c0.002,0.005 0.005,0.008 0.01,0.007c0.001,-0 0.005,-0 0.012,-0.001c0.007,0 0.018,-0 0.032,-0.001c0.014,0 0.026,-0 0.036,-0l0.036,-0.001c0.056,-0 0.089,0.004 0.098,0.012c0.003,0.003 0.009,0.005 0.018,0.005c0.01,-0 0.015,0.002 0.015,0.005c-0,0.002 -0.003,0.006 -0.008,0.011c-0.005,0.006 -0.008,0.01 -0.008,0.013c-0,0.001 0,0.002 0.001,0.003c0.004,0.005 0.006,0.022 0.006,0.049c-0,0.01 -0.001,0.016 -0.002,0.017c-0.001,0.001 -0.001,0.001 -0.001,0.002c-0,0.003 0.003,0.007 0.008,0.013c0.006,0.007 0.009,0.011 0.009,0.012c-0,0.006 -0.017,0.01 -0.052,0.012c-0.007,0.001 -0.026,0.002 -0.057,0.005c-0.031,0.003 -0.058,0.004 -0.081,0.004l-0.053,-0c-0.022,-0 -0.046,0.001 -0.073,0.002l-0.059,0.002c-0.009,-0.017 -0.016,-0.03 -0.021,-0.038l0.002,-0.036c0.002,-0.024 0.003,-0.053 0.003,-0.087c-0,-0.005 -0.001,-0.06 -0.002,-0.167c-0.002,-0.116 -0.006,-0.184 -0.011,-0.204c-0.001,-0.007 -0.003,-0.014 -0.004,-0.022l-0.005,-0.048c-0,-0.001 -0,-0.003 -0.001,-0.005c0,-0.001 -0,-0.002 -0,-0.003c-0,-0.007 0.002,-0.013 0.007,-0.017c0.005,-0.004 0.014,-0.008 0.027,-0.013Z" style="fill:#d22e7a;fill-rule:nonzero;"/></g><g transform="matrix(100,0,0,100,436.5,75.4)"><path d="M0.153,-0.123c0.004,-0.004 0.006,-0.009 0.006,-0.015c0,-0.006 0.002,-0.014 0.006,-0.023c0.003,-0.01 0.005,-0.018 0.005,-0.024c0,-0.012 0.003,-0.02 0.008,-0.023c0.005,-0.003 0.021,-0.006 0.046,-0.007c0.05,-0.002 0.081,-0.003 0.092,-0.003c0.025,0 0.042,0.001 0.05,0.004c0.008,0.003 0.015,0.01 0.022,0.021c0.005,0.008 0.005,0.015 0.001,0.022c-0.004,0.007 -0.003,0.015 0.002,0.026c0.006,0.013 0.009,0.022 0.01,0.029c0.002,0.009 0.005,0.013 0.008,0.013c0.002,0 0.009,-0.001 0.02,-0.004c0.011,-0.003 0.017,-0.004 0.017,-0.005l-0.008,-0.049c-0.005,-0.033 -0.011,-0.068 -0.016,-0.106c-0.005,-0.038 -0.008,-0.064 -0.008,-0.077c-0,-0.009 -0.001,-0.018 -0.003,-0.027c-0.001,-0.009 -0.004,-0.02 -0.007,-0.031c-0.003,-0.012 -0.005,-0.021 -0.006,-0.028c-0.008,-0.047 -0.018,-0.088 -0.03,-0.125c-0.002,-0.005 -0.005,-0.015 -0.009,-0.03c-0.003,-0.015 -0.007,-0.026 -0.011,-0.035c-0.003,-0.008 -0.006,-0.013 -0.009,-0.015c-0.003,-0.002 -0.007,-0.003 -0.012,-0.004c-0.008,-0.001 -0.013,-0.001 -0.015,0.001c-0.002,0.002 -0.011,0.003 -0.027,0.003l-0.025,0.001l-0.005,0.015c-0.005,0.012 -0.009,0.023 -0.014,0.034c-0.013,0.028 -0.022,0.056 -0.028,0.085c-0.002,0.009 -0.005,0.019 -0.01,0.03c-0.005,0.011 -0.009,0.02 -0.011,0.029c-0.004,0.016 -0.007,0.026 -0.009,0.03c-0.003,0.006 -0.005,0.013 -0.006,0.02c-0.008,0.041 -0.016,0.069 -0.024,0.082c-0.002,0.002 -0.005,0.011 -0.009,0.026c-0.005,0.016 -0.008,0.025 -0.009,0.027c-0.001,0.002 -0.004,0.012 -0.009,0.029c-0.001,0.005 -0.008,0.025 -0.021,0.062c-0.013,0.037 -0.021,0.059 -0.022,0.066l-0.002,0.011l0.029,-0.003c0.019,-0.001 0.031,-0.003 0.034,-0.004c0.003,-0.001 0.004,-0.006 0.004,-0.013c0,-0.007 0.002,-0.012 0.005,-0.015Zm0.028,-0.446c0,-0.003 0.004,-0.013 0.011,-0.03c0.007,-0.017 0.011,-0.027 0.011,-0.029c0,-0.007 0.002,-0.014 0.006,-0.023c0.006,-0.015 0.016,-0.022 0.031,-0.022c0.005,0 0.009,0 0.012,0.001c0.002,0.001 0.006,0.001 0.011,0.001c0.007,0 0.014,-0.001 0.022,-0.003c0.007,-0.002 0.015,-0.003 0.022,-0.003c0.011,0 0.02,0.002 0.027,0.007c0.003,0.003 0.007,0.005 0.013,0.006c0.005,0.001 0.014,0.009 0.029,0.024c0.011,0.01 0.018,0.018 0.021,0.023c0.003,0.006 0.008,0.019 0.015,0.039c0.009,0.029 0.013,0.045 0.013,0.048c-0,0.004 0.002,0.011 0.007,0.022c0.009,0.021 0.014,0.046 0.014,0.075c-0,0.001 -0,0.003 -0.001,0.004c0,0.002 -0,0.003 -0,0.004c-0.001,0.007 -0.001,0.011 0.001,0.013c0.001,0.002 0.003,0.01 0.006,0.024c0.003,0.015 0.005,0.023 0.006,0.024c0.005,0.007 0.008,0.032 0.008,0.075c-0,0.015 0.001,0.028 0.003,0.039c0.003,0.011 0.004,0.022 0.005,0.032c0.001,0.019 0.004,0.031 0.007,0.038c0.004,0.008 0.006,0.018 0.006,0.029c-0,0.011 0.002,0.019 0.006,0.024c0.003,0.005 0.005,0.011 0.005,0.02c-0,0.007 -0.001,0.011 -0.004,0.011c-0.003,-0 -0.003,0.004 -0.002,0.011c0.001,0.002 0.001,0.004 0.001,0.007c-0,0.007 -0.005,0.011 -0.014,0.013c-0.009,0.003 -0.028,0.005 -0.057,0.008c-0.003,0.001 -0.008,0.001 -0.013,0.001c-0.009,-0 -0.015,-0.002 -0.019,-0.006c-0.015,-0.013 -0.024,-0.032 -0.029,-0.056c-0.004,-0.019 -0.008,-0.032 -0.012,-0.04l-0.009,-0.015l-0.024,0.002c-0.019,0.001 -0.04,0.002 -0.065,0.002l-0.041,-0l-0.005,0.013c-0.002,0.004 -0.005,0.014 -0.008,0.031c-0.003,0.017 -0.005,0.027 -0.007,0.031c-0.002,0.004 -0.004,0.011 -0.005,0.022c-0.001,0.009 -0.006,0.015 -0.014,0.017c-0.008,0.003 -0.027,0.004 -0.057,0.005l-0.046,-0l-0.018,-0.02c-0.013,-0.014 -0.019,-0.023 -0.019,-0.027c-0,-0.006 0.002,-0.014 0.005,-0.023c0.003,-0.009 0.006,-0.014 0.009,-0.015c0.003,-0.001 0.004,-0.005 0.004,-0.013c-0,-0.005 0.002,-0.012 0.007,-0.023c0.005,-0.011 0.008,-0.018 0.008,-0.023c-0,-0.005 0.003,-0.017 0.008,-0.036c0.002,-0.006 0.005,-0.016 0.009,-0.03c0.004,-0.014 0.008,-0.027 0.012,-0.039c0.004,-0.011 0.008,-0.02 0.011,-0.027c0.004,-0.007 0.008,-0.018 0.012,-0.033c0.007,-0.024 0.013,-0.041 0.019,-0.052c0.003,-0.007 0.005,-0.013 0.005,-0.019c0,-0.007 0.003,-0.022 0.01,-0.046c0.007,-0.024 0.012,-0.04 0.016,-0.047c0.005,-0.009 0.007,-0.018 0.007,-0.025c-0,-0.007 0.001,-0.012 0.004,-0.013c0.003,-0.001 0.004,-0.004 0.004,-0.008Zm0.129,0.107c-0.004,-0.028 -0.008,-0.042 -0.012,-0.042c-0.001,-0 -0.004,0.009 -0.009,0.026c-0.004,0.017 -0.006,0.029 -0.006,0.034c0,0.005 -0.004,0.017 -0.011,0.038c-0.007,0.021 -0.012,0.041 -0.015,0.059c-0.003,0.019 -0.005,0.032 -0.007,0.037c-0.003,0.007 -0.004,0.011 -0.001,0.014c0.003,0.003 0.027,0.005 0.071,0.005c0.019,-0 0.03,-0.001 0.031,-0.002l0.001,-0.001l0,-0.002c0,-0.012 -0.005,-0.031 -0.015,-0.057c-0.01,-0.025 -0.019,-0.062 -0.027,-0.109Zm0.046,0.057c0,0.008 0.002,0.015 0.006,0.021c0.003,0.006 0.005,0.013 0.005,0.02c0,0.011 0.002,0.018 0.006,0.022c0.005,0.003 0.008,0.01 0.009,0.019c0.005,0.023 0.009,0.038 0.012,0.045c0.001,0.003 -0,0.008 -0.005,0.014c-0.005,0.006 -0.019,0.009 -0.043,0.009c-0.003,-0 -0.028,-0.001 -0.073,-0.002c-0.027,-0.001 -0.044,-0.002 -0.05,-0.004c-0.007,-0.002 -0.013,-0.008 -0.02,-0.019c-0.004,-0.006 -0.006,-0.011 -0.006,-0.014c0,-0.001 0,-0.003 0.001,-0.004l0.003,-0.013c0.009,-0.029 0.013,-0.052 0.014,-0.067c0.002,-0.017 0.005,-0.028 0.01,-0.035c0.005,-0.006 0.007,-0.011 0.007,-0.015c0,-0.004 0.002,-0.007 0.005,-0.008c0.004,-0.001 0.006,-0.005 0.006,-0.012c-0,-0.007 0.002,-0.014 0.005,-0.021c0.003,-0.005 0.005,-0.017 0.008,-0.035c0.003,-0.017 0.004,-0.03 0.004,-0.039l0,-0.004l-0.001,-0.002c-0.001,-0.001 -0.001,-0.003 -0.001,-0.005c0,-0.005 0.004,-0.007 0.012,-0.007c0.009,-0 0.021,0.003 0.034,0.008c0.008,0.003 0.015,0.01 0.022,0.021c0.008,0.011 0.012,0.021 0.013,0.031c0.001,0.01 0.003,0.019 0.006,0.028c0.007,0.022 0.011,0.045 0.011,0.068Z" style="fill:#d22e7a;fill-rule:nonzero;"/></g><g transform="matrix(100,0,0,100,531.8,75.4)"><path d="M0.304,-0.607c0,-0.001 0.005,-0.003 0.016,-0.004c0.011,-0.001 0.022,-0.001 0.033,-0.003c0.012,-0.001 0.018,-0.001 0.019,-0.001c0.039,0 0.073,-0.002 0.103,-0.007l0.016,-0.002l-0.003,-0.026c-0.001,-0.017 -0.001,-0.025 0.001,-0.026c0.002,-0.001 0.007,-0 0.014,0.003c0.007,0.003 0.011,0.006 0.013,0.009c0.002,0.003 0.004,0.016 0.005,0.038l0.002,0.031l-0.009,0.006c-0.006,0.004 -0.025,0.006 -0.058,0.007c-0.065,0.001 -0.098,0.004 -0.1,0.008c-0.003,0.005 -0.003,0.012 0,0.021c0.005,0.009 0.007,0.048 0.007,0.117l0,0.009l-0.001,0.138c-0,0.004 0,0.01 0.001,0.017c-0,0.008 0,0.013 0,0.014c0,0.006 -0.001,0.011 -0.003,0.015c-0.001,0.003 -0.002,0.01 -0.002,0.023c-0,0.007 -0.001,0.013 -0.002,0.018c-0.001,0.005 -0.002,0.008 -0.002,0.011c-0,0.003 0,0.006 0.001,0.009c0.002,0.003 0.002,0.005 0,0.008c-0.002,0.003 -0.003,0.004 -0.003,0.004c0.001,0.001 -0.001,0.002 -0.004,0.003c-0.004,0.002 -0.006,0.003 -0.007,0.004c0.008,0.003 0.012,0.006 0.012,0.007c-0.003,0.002 -0.004,0.005 -0.001,0.009c0.003,0.005 0.003,0.012 0,0.019c-0.002,0.006 -0.002,0.013 0,0.02c0.002,0.006 0,0.011 -0.006,0.015c-0.009,0.005 -0.017,0.005 -0.023,-0.001c-0.006,-0.006 -0.02,-0.009 -0.042,-0.009c-0.011,-0 -0.018,0.001 -0.022,0.002c-0.009,0.003 -0.017,0.001 -0.024,-0.005c-0.015,-0.012 -0.022,-0.034 -0.022,-0.065l0,-0.089c0,-0.037 0.002,-0.065 0.005,-0.084c0.003,-0.017 0.004,-0.038 0.004,-0.065c0,-0.005 -0,-0.013 -0,-0.025c-0.001,-0.012 -0.001,-0.022 -0.001,-0.031c-0.001,-0.053 -0.003,-0.089 -0.006,-0.106l-0.004,-0.021l-0.016,0.002c-0.069,0.006 -0.105,0.01 -0.108,0.011c-0.008,0.003 -0.015,0.004 -0.022,0.004c-0.01,-0 -0.019,-0.025 -0.026,-0.074c-0.004,-0.031 -0.006,-0.047 -0.007,-0.049c-0.001,-0.003 -0.001,-0.005 0.002,-0.008c0.009,-0.007 0.108,-0.011 0.297,-0.011c0.091,0 0.137,-0.001 0.138,-0.002c0.002,-0.002 0.004,-0.003 0.007,-0.003c0.005,0 0.011,0.003 0.016,0.008c0.005,0.006 0.007,0.012 0.007,0.017c-0,0.006 -0.003,0.01 -0.01,0.012c-0.019,0.005 -0.048,0.008 -0.089,0.008l-0.009,-0c-0.012,-0.001 -0.045,-0.002 -0.099,-0.002c-0.123,0 -0.196,0.002 -0.219,0.005c-0.005,0.001 -0.007,0.001 -0.008,0.002c-0.001,0.001 -0.001,0.004 -0,0.007c0.007,0.018 0.01,0.031 0.01,0.038c-0,0.003 0.001,0.006 0.003,0.008l0.006,-0c0.031,-0 0.061,-0.003 0.09,-0.008c0.005,-0.001 0.013,-0.002 0.023,-0.002c0.007,-0 0.013,0 0.016,0.001l0.017,0.003l0.001,0.017c0.001,0.011 0.003,0.017 0.008,0.019c0.009,0.003 0.013,0.013 0.013,0.028c-0,0.007 0.001,0.013 0.003,0.016c0.002,0.003 0.004,0.022 0.005,0.057c0.001,0.035 0.002,0.052 0.002,0.053c-0,0.011 -0.001,0.02 -0.004,0.027c-0.002,0.004 -0.002,0.008 -0,0.012c0.002,0.004 0.003,0.019 0.003,0.045c-0,0.035 -0.001,0.052 -0.004,0.053c-0.003,0.001 -0.005,0.015 -0.005,0.04c-0,0.01 -0,0.021 -0.001,0.034c0,0.013 -0,0.022 -0,0.025c-0,0.02 0.001,0.032 0.003,0.037c0.001,0.002 0.001,0.004 0.001,0.007c-0,0.003 -0.001,0.006 -0.002,0.009l-0.002,0.005c-0,0.003 0.011,0.004 0.032,0.005l0.027,0.002l0.001,-0.032c0.007,-0.115 0.01,-0.205 0.01,-0.27l-0.001,-0.128l-0.008,-0.02c-0.005,-0.012 -0.008,-0.02 -0.008,-0.023Z" style="fill:#d22e7a;fill-rule:nonzero;"/></g><g transform="matrix(100,0,0,100,657.6,75.4)"><path d="M0.137,-0.669c-0.001,-0.003 -0.005,-0.004 -0.012,-0.004c-0.019,0 -0.031,0.004 -0.036,0.012c-0.001,0.004 -0.002,0.016 -0.002,0.036l0,0.042c0,0.073 -0.002,0.119 -0.006,0.139c-0.006,0.03 -0.009,0.09 -0.009,0.181c0,0.061 -0,0.097 -0.001,0.109l-0.003,0.032l0.052,0.005c0.027,0.001 0.05,0.002 0.071,0.002c0.055,-0 0.096,-0.002 0.121,-0.006l0.024,-0.004l-0.002,-0.018c-0.001,-0.011 -0.003,-0.018 -0.005,-0.02c-0.003,-0.003 -0.02,-0.005 -0.052,-0.008c-0.032,-0.003 -0.06,-0.004 -0.085,-0.004c-0.033,-0 -0.055,-0.003 -0.064,-0.008c-0.008,-0.005 -0.013,-0.008 -0.014,-0.011c-0.001,-0.001 -0.001,-0.007 -0.001,-0.018c0,-0.031 0.002,-0.088 0.006,-0.169c0.003,-0.081 0.006,-0.135 0.009,-0.162c0.006,-0.057 0.009,-0.097 0.009,-0.12l0,-0.006Zm0.035,0.038c0,0.013 -0.002,0.033 -0.005,0.06c-0.003,0.027 -0.004,0.045 -0.004,0.056c0,0.011 -0.001,0.018 -0.003,0.022c-0.002,0.004 -0.004,0.033 -0.005,0.088c-0.001,0.055 -0.001,0.083 -0.002,0.086c-0.001,0.005 -0.002,0.026 -0.003,0.061l-0.001,0.045l0.016,0.001c0.015,-0 0.036,0.001 0.061,0.002c0.025,0.002 0.046,0.003 0.062,0.004c0.05,0.001 0.078,0.006 0.083,0.013c0.003,0.003 0.003,0.006 0,0.009c-0.005,0.003 -0.007,0.011 -0.007,0.024c0,0.003 0.001,0.015 0.002,0.036c0.001,0.007 0.001,0.014 0.001,0.022c0,0.008 -0.001,0.015 -0.004,0.021c-0.004,0.008 -0.008,0.012 -0.012,0.012c-0.004,-0 -0.006,-0.001 -0.006,-0.002c-0.001,-0.005 -0.004,-0.009 -0.01,-0.012c-0.007,-0.003 -0.014,-0.004 -0.021,-0.004c-0.006,-0 -0.01,0.001 -0.013,0.002c-0.012,0.005 -0.044,0.008 -0.095,0.008l-0.018,-0c-0.024,-0.001 -0.05,-0.002 -0.078,-0.002c-0.031,-0.001 -0.049,-0.003 -0.052,-0.006c-0.005,-0.004 -0.008,-0.006 -0.009,-0.006c-0.013,-0.001 -0.019,-0.016 -0.019,-0.044c0,-0.004 0.001,-0.012 0.002,-0.024c0.003,-0.016 0.004,-0.055 0.004,-0.118c0,-0.062 0.001,-0.103 0.004,-0.123c0.003,-0.015 0.007,-0.072 0.012,-0.173c0.001,-0.009 0.001,-0.02 0.001,-0.031c0,-0.009 -0.001,-0.014 -0.003,-0.015c-0.004,-0.002 -0.006,-0.014 -0.006,-0.035c0,-0.016 0.001,-0.026 0.004,-0.031c0.004,-0.007 0.016,-0.012 0.037,-0.015c0.023,-0.004 0.037,-0.006 0.042,-0.006c0.005,0 0.011,0.001 0.016,0.004c0.007,0.003 0.011,0.007 0.011,0.012c0,0.003 0.003,0.007 0.009,0.012l0.009,0.007l0,0.04Z" style="fill:#d22e7a;fill-rule:nonzero;"/></g><g transform="matrix(100,0,0,100,697.9,75.4)"><path d="M0.38,-0.182c0.001,-0 0.002,-0.001 0.002,-0.002c-0,-0.001 -0.001,-0.002 -0.002,-0.002c-0.001,-0 -0.002,0.001 -0.002,0.002c-0,0.001 0.001,0.002 0.002,0.002Zm0.057,-0.388c0,-0.001 -0,-0.001 -0.001,-0.001c-0.001,0 -0.002,0 -0.002,0.001c0,0.001 0.001,0.002 0.002,0.002c0.001,0 0.001,-0.001 0.001,-0.002Zm-0.091,-0.086c0,0.003 0.001,0.003 0.002,0.002c0.001,-0.001 0.001,-0.003 0,-0.004c-0.001,-0.001 -0.001,-0.001 -0.001,-0c-0.001,-0 -0.001,0.001 -0.001,0.002Zm0.05,0.022c-0.002,-0.026 -0.005,-0.039 -0.01,-0.039c-0.001,0 -0.002,0 -0.003,0.001c-0.001,0.001 -0.003,0.002 -0.005,0.003c-0.002,0.001 -0.004,0.001 -0.006,0.002c-0.006,0.003 -0.01,0.007 -0.012,0.01c-0.003,0.003 -0.005,0.009 -0.008,0.02c-0.003,0.009 -0.003,0.015 -0.001,0.019c0.003,0.003 0.004,0.015 0.004,0.035c0,0.014 -0.001,0.022 -0.003,0.024c-0.003,0.003 -0.003,0.011 0,0.024c0.001,0.005 0.002,0.01 0.002,0.017c0,0.007 -0.002,0.014 -0.005,0.023c-0.003,0.008 -0.004,0.016 -0.004,0.024l0,0.014c0,0.003 -0,0.006 -0.001,0.008c-0.001,0.003 -0.003,0.005 -0.004,0.008c-0.002,0.003 -0.003,0.005 -0.004,0.008c-0.001,0.004 -0.002,0.006 -0.002,0.007c0,0.001 0.001,0.002 0.004,0.001l0.001,-0c0.003,-0 0.004,0.011 0.004,0.034c-0.001,0.026 -0.003,0.041 -0.005,0.045c-0.003,0.005 -0.004,0.013 -0.003,0.023c0.002,0.008 0.001,0.013 -0.003,0.016c-0.001,0.001 -0.002,0.002 -0.002,0.004c0,0.002 0.001,0.005 0.003,0.009c0.001,0.004 0.002,0.007 0.002,0.009c0,0.003 -0.002,0.005 -0.007,0.005c-0.003,-0 -0.005,0.006 -0.005,0.018c0,0.006 -0,0.01 -0.001,0.013c-0.001,0.003 -0.002,0.005 -0.004,0.008c-0.003,0.003 -0.004,0.006 -0.005,0.008c-0.001,0.004 -0.007,0.009 -0.018,0.015c-0.011,0.006 -0.018,0.01 -0.02,0.012c-0.005,0.005 -0.015,0.007 -0.028,0.007c-0.011,-0 -0.023,-0.002 -0.037,-0.005c-0.015,-0.003 -0.023,-0.005 -0.026,-0.008c-0.002,-0.002 -0.005,-0.003 -0.009,-0.003c-0.005,-0 -0.014,-0.008 -0.025,-0.024c-0.011,-0.015 -0.02,-0.031 -0.025,-0.046c-0.008,-0.024 -0.012,-0.058 -0.012,-0.102c0,-0.03 0.002,-0.056 0.006,-0.078c0.006,-0.03 0.009,-0.089 0.009,-0.176c0,-0.015 -0,-0.023 -0.001,-0.024c-0.001,-0.003 -0.007,-0.004 -0.018,-0.004l-0.016,-0l0.002,0.046l0.001,0.035c0,0.015 -0.001,0.028 -0.002,0.04c-0.009,0.074 -0.013,0.144 -0.013,0.209c0,0.037 0.001,0.062 0.002,0.076c0.001,0.015 0.003,0.025 0.004,0.03c0.001,0.005 0.006,0.012 0.015,0.019c0.009,0.007 0.016,0.016 0.023,0.025c0.012,0.015 0.024,0.025 0.036,0.031c0.039,0.017 0.066,0.025 0.081,0.025c0.01,-0 0.025,-0.004 0.044,-0.011c0.019,-0.007 0.031,-0.013 0.036,-0.018c0.01,-0.01 0.023,-0.033 0.038,-0.069c0.015,-0.036 0.022,-0.061 0.022,-0.075c0,-0.012 0.002,-0.03 0.006,-0.053c0.007,-0.038 0.01,-0.106 0.01,-0.204c0,-0.023 -0.001,-0.047 -0.002,-0.071Zm-0.225,0.118c0,0.007 -0.001,0.023 -0.003,0.047c-0.002,0.024 -0.003,0.04 -0.003,0.049c0,0.015 -0.001,0.023 -0.004,0.024c-0.004,0.001 -0.005,0.004 -0.004,0.007c0.001,0.002 0.002,0.017 0.003,0.045c0,0.025 0.002,0.042 0.007,0.049c0.003,0.005 0.005,0.01 0.005,0.015c0,0.001 0.002,0.007 0.006,0.018c0.007,0.018 0.025,0.028 0.053,0.029l0.006,-0c0.013,-0 0.023,-0.003 0.029,-0.008c0.005,-0.005 0.011,-0.017 0.016,-0.034c0.007,-0.021 0.012,-0.062 0.015,-0.121c0.003,-0.057 0.005,-0.094 0.008,-0.112c0.003,-0.021 0.004,-0.047 0.004,-0.08l0,-0.034l-0.001,-0.072l0.016,-0.002c0.011,-0.003 0.025,-0.007 0.041,-0.013c0.016,-0.006 0.028,-0.009 0.037,-0.009c0.009,-0 0.016,0.003 0.022,0.009c0.007,0.007 0.011,0.015 0.01,0.022c0,0.002 0.002,0.004 0.005,0.006c0.003,0.002 0.005,0.008 0.005,0.017c0,0.001 -0,0.004 -0,0.009c-0.001,0.005 -0.001,0.009 -0.001,0.013l0,0.012c0,0.017 0.001,0.027 0.002,0.028c0.001,0.001 0.002,0.007 0.002,0.016c0,0.011 -0.001,0.018 -0.003,0.02c-0.005,0.005 -0.007,0.012 -0.007,0.021c0,0.005 0.001,0.009 0.002,0.011c0.002,0.006 0.003,0.011 0.003,0.016c0,0.001 -0,0.007 -0.001,0.016c-0.001,0.009 -0.001,0.019 -0.001,0.028c0,0.03 -0.001,0.046 -0.003,0.048c-0.002,0.003 -0.002,0.007 0,0.012c0.001,0.001 0.001,0.004 0.001,0.009c0,0.008 -0.002,0.025 -0.006,0.051c-0.004,0.027 -0.006,0.045 -0.006,0.054c0,0.014 -0.002,0.024 -0.006,0.03c-0.004,0.006 -0.005,0.011 -0.004,0.016c0.001,0.005 0.001,0.009 -0.001,0.011c-0.002,0.002 -0.005,0.011 -0.01,0.026c-0.005,0.016 -0.008,0.025 -0.009,0.027c-0.003,0.005 -0.005,0.009 -0.005,0.013c0,0.004 -0.006,0.011 -0.017,0.021c-0.011,0.011 -0.022,0.018 -0.032,0.023c-0.012,0.006 -0.019,0.009 -0.022,0.009c-0.003,-0 -0.009,0.003 -0.02,0.009c-0.012,0.006 -0.031,0.009 -0.057,0.009c-0.011,-0 -0.021,-0.001 -0.03,-0.002c-0.009,-0.001 -0.015,-0.002 -0.018,-0.003c-0.004,-0.001 -0.01,-0.003 -0.019,-0.006c-0.009,-0.003 -0.015,-0.006 -0.018,-0.007c-0.019,-0.007 -0.053,-0.036 -0.102,-0.085c-0.013,-0.013 -0.021,-0.024 -0.024,-0.034c-0.002,-0.007 -0.003,-0.031 -0.003,-0.071c0,-0.097 0.003,-0.166 0.008,-0.207c0.003,-0.023 0.006,-0.061 0.007,-0.116c0.001,-0.033 0.001,-0.054 0.002,-0.061c0.001,-0.007 0.002,-0.01 0.005,-0.011l0.005,-0.001l0.01,-0l0.03,0.001c0.037,0.002 0.062,0.009 0.073,0.02c0.005,0.005 0.007,0.009 0.007,0.014c0,0.004 -0.001,0.009 -0.003,0.015c-0.001,0.005 -0.002,0.009 -0.002,0.011c0,0.002 0,0.005 0.001,0.009c0.001,0.005 0.001,0.008 0.001,0.01c0,0.002 -0.001,0.006 -0.002,0.011c-0.002,0.008 -0.002,0.014 0.001,0.017c0.001,0.001 0.002,0.008 0.002,0.019c0,0.009 -0,0.022 -0.001,0.039c-0.001,0.017 -0.002,0.027 -0.002,0.028Z" style="fill:#d22e7a;fill-rule:nonzero;"/></g><text x="-3px" y="75.4px" style="font-family:'LumHeader3-Bold', 'Lum Header 3';font-weight:700;font-size:100px;fill:#d22e7a;">m<tspan x="221.4px 310.4px 411.5px 489.2px 587px 612px 745.3px " y="75.4px 75.4px 75.4px 75.4px 75.4px 75.4px 75.4px ">ra r cb</tspan></text></svg>